<svg xmlns="http://www.w3.org/2000/svg" viewBox="0 0 1080 829"><path d="M290.5 723.9c1.7 0 3.2 1.3 2.4 4.6l-8 1.9c1.5-3.8 3.8-6.5 5.6-6.5m4.4 12.8h-1.6c-2 2.4-4.1 4.2-6.3 4.2s-3.3-1.3-3.3-4.2c0-1.2.1-2.4.4-3.5L297 729c2.5-5.9-.5-8.5-4-8.5-6.1 0-13 10.1-13 19 0 4 1.9 6.2 4.9 6.2 3.4-.1 7.1-3.5 10-9m-2.5-18.6 9-8.4v-1h-4.9l-5.6 9.4zm-27.7 5.9h4.3l-6.8 18.5c-.6 1.6.2 3.1 1.9 3.1 3.8 0 10-3.8 12.2-9h-1.2c-1.7 1.8-5 4.2-7.8 4.7l6.2-17.4h6.3l.8-2.6h-6.2l2.4-6.7h-2.5l-4.4 6.7-5.2.7zm-5.8-.9c.5-1.7-.6-2.7-1.5-2.7-3.7 0-8.1 3.3-9.9 8h1.2c1.2-1.7 3.2-3.6 5.1-3.9l-7.1 18.4c-.6 1.7.6 2.7 1.5 2.7 3.5 0 7.6-3.4 9.4-8h-1.2c-1.2 1.7-3.2 3.6-5.1 3.9zm1.3-9.2c1.7 0 3.1-1.3 3.1-3.1 0-1.7-1.4-3.1-3.1-3.1s-3.1 1.4-3.1 3.1c.1 1.7 1.4 3.1 3.1 3.1m-40.8 28.3c-.9 2.1 0 3.4 2.1 3.4 1.3 0 1.8-.3 2.3-1.7l4.9-13c2.3-2.8 6.9-5.7 8.8-5.7 1.3 0 1.2 1.1.3 2.8l-7.5 14.5c-.7 1.4.2 3.1 1.9 3.1 3.7 0 8.1-3.3 9.9-8h-1.2c-1.2 1.7-3.2 3.6-5.1 3.9l6.5-13.1c.8-1.7 1.3-3.2 1.3-4.5 0-2.1-1.2-3.5-3.4-3.5-3.2 0-6.4 3.6-10.3 8.1v-3.4c0-2.5-.8-4.6-3-4.6-1.4 0-2.7 1.2-4 2.9v.5c2.4-.1 3.5 3.5 1.8 7.3zm-.1-16.1c.9-3 .4-5.6-1.9-5.6-2.7 0-3.4 2.1-6.2 8.1v-3.4c0-2.5-.8-4.6-3-4.6-2.6 0-5 4-6.8 8h1.2c1.3-1.8 2.4-2.9 3.3-2.9 1.1 0 1.7 1.7 0 5.5l-5 11.1c-.9 2.1 0 3.4 2.1 3.4 1.3 0 1.8-.3 2.3-1.7l4.9-13c1.4-1.7 2.6-3.2 4.2-4.9zm-28.4-2.2c1.7 0 3.2 1.3 2.4 4.6l-8 1.9c1.4-3.8 3.8-6.5 5.6-6.5m4.4 12.8h-1.6c-2 2.4-4.1 4.2-6.3 4.2s-3.3-1.3-3.3-4.2c0-1.2.1-2.4.4-3.5l12.8-4.2c2.5-5.9-.5-8.5-4-8.5-6.1 0-13 10.1-13 19 0 4 1.9 6.2 4.9 6.2 3.5-.1 7.1-3.5 10.1-9M165.1 724h4.3l-6.8 18.5c-.6 1.6.2 3.1 1.9 3.1 3.8 0 10-3.8 12.2-9h-1.2c-1.7 1.8-5 4.2-7.8 4.7l6.2-17.4h6.3l.8-2.6h-6.2l2.4-6.7h-2.5l-4.4 6.7-5.2.7zm-23.4 14.4c0-5.7 6.3-13.4 9.9-13.4.8 0 1.5.1 2.2.3l-3.7 9.9c-2.1 2.6-5.4 5.7-6.9 5.7-1 0-1.5-.8-1.5-2.5m19.5-19-1.9-.1-2.2 2.1h-.5c-10.6 0-19.7 11.9-19.7 20.5 0 2.4 1.5 3.8 3.8 3.8 2.7 0 5.4-3.9 8.4-8.1l-.1 1.5c-.4 4.3.9 6.6 3.1 6.6 2.6 0 5-4 6.8-8h-1.2c-1.3 1.8-2.4 2.9-3.3 2.9-1 0-1.7-1.8 0-5.5zm-22.5 6.7c.9-3 .4-5.6-1.9-5.6-2.7 0-3.4 2.1-6.2 8.1v-3.4c0-2.5-.8-4.6-3-4.6-2.6 0-5 4-6.8 8h1.2c1.3-1.8 2.4-2.9 3.3-2.9 1.1 0 1.7 1.7 0 5.5l-5 11.1c-.9 2.1 0 3.4 2.1 3.4 1.3 0 1.8-.3 2.3-1.7l4.9-13c1.4-1.7 2.6-3.2 4.2-4.9zm-35.5 18.6.5-1.4c-6.2-1.2-6.9-1.2-4.5-7.9l2.5-6.9h6.8c3.1 0 3.1 1.3 2.6 4.6h1.8l4.1-11.2h-1.8c-1.5 2.6-2.7 4.6-6.1 4.6h-6.7l3.6-9.8c1.1-3.1 1.8-3.8 5.9-3.8h3c4.3 0 4.8 1.2 4.8 5.5h1.7l1.4-7.6H97.3l-.5 1.4c5 1 5.4 1.5 3.1 7.9l-5.6 15.2c-2.3 6.3-3.3 6.9-9 7.9l-.4 1.4h18.3zM228.5 666c1.7 0 3.2 1.3 2.4 4.6l-8 1.9c1.4-3.8 3.8-6.5 5.6-6.5m4.4 12.8h-1.6c-2 2.4-4.1 4.2-6.3 4.2s-3.3-1.3-3.3-4.2c0-1.2.1-2.4.4-3.5l12.8-4.2c2.5-5.9-.5-8.5-4-8.5-6.1 0-13 10.1-13 19 0 4 1.9 6.2 4.9 6.2 3.5-.1 7.2-3.4 10.1-9m-2.5-18.6 9-8.4v-1h-4.9l-5.6 9.4zm-27.7 5.9h4.3l-6.8 18.5c-.6 1.6.2 3.1 1.9 3.1 3.8 0 10-3.8 12.2-9H213c-1.7 1.8-5 4.2-7.8 4.7l6.2-17.4h6.3l.8-2.6h-6.2l2.4-6.7h-2.5l-4.4 6.7-5.2.7v2zm-5.8-.9c.5-1.7-.6-2.7-1.5-2.7-3.7 0-8.1 3.3-9.9 8h1.2c1.2-1.7 3.2-3.6 5.1-3.9l-7.1 18.4c-.6 1.7.6 2.7 1.5 2.7 3.5 0 7.6-3.4 9.4-8h-1.2c-1.2 1.7-3.2 3.6-5.1 3.9zm1.3-9.2c1.7 0 3.1-1.3 3.1-3.1 0-1.7-1.4-3.1-3.1-3.1s-3.1 1.4-3.1 3.1c.1 1.7 1.4 3.1 3.1 3.1m-24.6 27.7 12.9-33.9-.4-.5-8.1.9v1l1.6 1.2c1.4 1.1 1 2.2-.3 5.6l-10.1 26.6c-.7 1.4.2 3.1 1.9 3.1 3.7 0 7.6-3.3 9.4-8h-1.2c-1.3 1.7-3.8 3.6-5.7 4m-24.5-3.2c0-5.7 6.3-13.4 9.9-13.4.8 0 1.5.1 2.2.3l-3.7 9.9c-2.1 2.6-5.4 5.7-6.9 5.7-1 0-1.5-.8-1.5-2.5m19.4-19-1.9-.1-2.2 2.1h-.4c-10.6 0-19.7 11.9-19.7 20.5 0 2.4 1.5 3.8 3.8 3.8 2.7 0 5.4-3.9 8.4-8.1l-.1 1.5c-.4 4.3.9 6.6 3.1 6.6 2.6 0 5-4 6.8-8h-1.2c-1.3 1.8-2.4 2.9-3.3 2.9-1 0-1.7-1.8 0-5.5zm-47.1 30.7c0-2.5 2.4-4 5.7-5.3 1.1.6 2.8 1.2 5 1.9 3.5 1.2 4.9 1.6 4.9 2.7 0 2.3-3.8 4-9.1 4-4.4 0-6.5-.9-6.5-3.3m9.6-14.9c-1.5 0-2.1-1.3-2.1-2.8 0-4.1 2.2-10.2 5.7-10.2 1.5 0 2.1 1.3 2.1 2.8 0 4.1-2.2 10.2-5.7 10.2m10 12.7c0-3-2.6-4-6.9-5.3-3.7-1.1-5.4-1.4-5.4-2.6 0-1 .8-2.1 2.4-3 6.1-.3 10-5.8 10-10.4 0-1-.2-1.8-.5-2.5h5.1l.8-2.6h-8.2q-1.5-.9-3.3-.9c-6.4 0-10.6 5.6-10.6 10.2 0 3.5 2.2 5.6 4.9 6.2-3 1.3-4.7 2.9-4.7 4.8 0 1.1.4 1.8 1.3 2.5-6.9 2-9.7 4.4-9.7 7.6s4.2 4.5 9.2 4.5c8.6-.1 15.6-4.7 15.6-8.5m-32.3-19.9c3.1 0 3.1 1.3 2.6 4.6h1.8l4.1-11.2h-1.8c-1.5 2.6-2.7 4.6-6.1 4.6h-6.7l3.4-9.3c1.1-3.1 1.8-3.7 5.9-3.7h3c4.3 0 4.8 1.2 4.8 5.5h1.7l1.4-7.6H97.3l-.5 1.4c5 1 5.4 1.5 3.1 7.9l-5.6 15.2c-2.3 6.3-3.3 6.9-9 7.9l-.4 1.4h28.4l5.1-8.1h-1.9c-3.2 3.1-7.3 6-13 6-7.5 0-6.9-.3-4.4-7.2l2.7-7.4zm3.7-19.4 9-6.2v-1h-5.5l-5 7.2zM225.5 608.1c1.7 0 3.2 1.3 2.4 4.6l-8 1.9c1.4-3.8 3.8-6.5 5.6-6.5m4.4 12.8h-1.6c-2 2.4-4.1 4.2-6.3 4.2s-3.3-1.3-3.3-4.2c0-1.2.1-2.4.4-3.5l12.8-4.2c2.5-5.9-.5-8.5-4-8.5-6.1 0-13 10.1-13 19 0 4 1.9 6.2 4.9 6.2 3.5 0 7.1-3.4 10.1-9m-2.5-18.6 9-8.4v-1h-4.9l-5.6 9.4zm-26.6 5.9h3.4l-6.8 18.5c-.6 1.6.2 3.1 1.9 3.1 3.8 0 10-3.8 12.2-9h-1.2c-1.7 1.8-5 4.2-7.8 4.7l6.2-17.4h6.3l.8-2.6h-6.2l2.4-6.7h-2.5l-4.4 6.7-4.4.7v2zm-3.3 2.1c.9-3 .4-5.6-1.9-5.6-2.7 0-3.4 2.1-6.2 8.1v-3.4c0-2.5-.8-4.6-3-4.6-2.6 0-5 4-6.8 8h1.2c1.3-1.8 2.4-2.9 3.3-2.9 1.1 0 1.7 1.7 0 5.5l-5 11.1c-.9 2.1 0 3.4 2.1 3.4 1.3 0 1.8-.3 2.3-1.7l4.9-13c1.4-1.7 2.6-3.2 4.2-4.9zm-28.4-2.2c1.7 0 3.2 1.3 2.4 4.6l-8 1.9c1.4-3.8 3.7-6.5 5.6-6.5m4.4 12.8h-1.6c-2 2.4-4.1 4.2-6.3 4.2s-3.3-1.3-3.3-4.2c0-1.2.1-2.4.4-3.5l12.8-4.2c2.5-5.9-.5-8.5-4-8.5-6.1 0-13 10.1-13 19 0 4 1.9 6.2 4.9 6.2 3.5 0 7.1-3.4 10.1-9m-31.5 5.2c-1.3 0-3.1-1.2-3.1-2.2 0-.3.6-1.8 1.3-3.6l2.1-5.5c2.2-2.6 5.6-5.5 7.5-5.5 1.2 0 2 .7 2 2.5 0 5.1-4.7 14.3-9.8 14.3m14.6-16.3c0-3.8-1.4-5.1-4-5.1-3.2 0-6.3 3.4-9.4 7.6l7.7-20.3-.4-.5-8.1.9v1l1.6 1.2c1.4 1.1 1 2.3-.3 5.6l-8.3 21.5c-.6 1.6-1.3 3.4-1.3 3.9 0 2.2 3 4.3 5.7 4.3 6.3 0 16.8-11.4 16.8-20.1m-25.2-2.4c.5-1.7-.6-2.7-1.5-2.7-3.7 0-8.1 3.3-9.9 8h1.2c1.2-1.7 3.2-3.6 5.1-3.9l-7.1 18.4c-.6 1.7.6 2.7 1.5 2.7 3.5 0 7.6-3.4 9.4-8H129c-1.2 1.7-3.2 3.6-5.1 3.9zm1.3-9.3c1.7 0 3.1-1.3 3.1-3.1 0-1.7-1.4-3.1-3.1-3.1s-3.1 1.4-3.1 3.1c.1 1.8 1.4 3.1 3.1 3.1m-18.7-3H97.2l-.5 1.4c5 1 5.4 1.5 3.1 7.9l-5.5 15.2c-2.3 6.3-3.3 6.9-9 7.9l-.4 1.4h25.7l5.6-9.9h-1.9c-3.1 3.5-6.9 7.8-12.5 7.8-4.3 0-4.8-.7-2.5-7.2l5.5-15.2c2.3-6.3 3.3-6.9 9-7.9z"/><path d="M179.1 157.8c.9-.9 1.8-1.9 2.7-2.8 1.7-1.9 3.3-3.7 5.3-5.4.6-.5 1.2-1 1.7-1.4.2-.2.2-.5.3-.6-.8.3-1.3 1-2.1 1.3-.2 0-.3-.2-.2-.3.6-.4 1.1-.8 1.7-1.3h-.1c-.2 0-.2-.2-.2-.3-2.1-.3-3.6 1.1-5.1 2.4-.3.2-.6-.2-.8-.2-2.4.8-4.1 2.9-6.5 3.8v-.3c-1 .3-1.9.9-2.9 1.1-1.4.3-2.7.2-4 .2-1.9.2-3.8.6-5.8 1h-.2q-1.5.45-3 1.2s-.1 0-.1.1c-.1.1-.2.2-.2.3-.3.4-.6.7-1.1.9-1 .5-1.8 1.4-2.6 2.1-.1.1-.2.1-.3.1-.9.8-1.7 1.6-2.6 2.4-.1.1-.3.1-.5.1 0-.1.1-.1.1-.2.1-.2.3-.4.4-.7.2-.2.3-.5.5-.7.2-.3.4-.7.7-1 .1-.1 0-.2 0-.2-.1-.1-.1-.1-.2-.1.8-.8 1.7-1.4 2.7-2-.1 0-.3 0-.2-.2.1-.1.2-.3.3-.4 0 0 0-.1.1-.1l-.1-.1c-.3.2-.5.3-.7.5-.4.3-.7 1-1.3 1h-.2c-.1 0-.1 0-.2-.1 0 0 0-.1.1-.1l.1-.1s0-.1.1-.1c0-.1.1-.1.1-.2l.1-.1c.1-.1.1-.2.2-.3 0-.1.1-.1.1-.2.1-.1.1-.2.2-.3s0-.2-.1-.3c.3-.4.7-.7 1.1-.9.6-.3 1.2-.7 1.8-1 .1-.1.2-.2.3-.2-.9.3-1.7.7-2.5 1.2 0 0-.2.1-.3.1 0 0-.2.1-.4-.1v-.1c.2-.3.6-.5 1-.8.2 0 .3 0 .3.2 5.1-4 12-3 17.9-5.1.5-.3 1-.6 1.4-1 .8-.3 1.4-1.1 2.4-1.6 1.3-1 2.2-2.1 2.7-3.6 0-.2-.2-.3-.2-.3-2.1 2.2-4.4 4-7 5.2-3.3 1.7-7 1.4-10.5 1.9.2-.3.5-.3.8-.3 0-.5.3-.6.6-1h.5c.2 0 .2-.3.3-.3.3 0 .8-.2.6-.2-.5-.6-1.4.5-2.2 0 .3-.3.2-.8.5-1h.6c0-.3.3-.6.3-.6 2.4-1.4 4.6-2.5 6.8-3.8-.5 0-.8.5-1.3.2.3 0 0-.5.3-.5 1.7-.5 3.2-1.4 4.9-2.1-.6 0-1.1.5-1.7 0 .3-.2.5-.5 1-.5v-.5c0-.2.2-.2.3-.2-.2 0-.3-.2-.3-.2.2-.3.6-.2 1-.5-.2 0-.5 0-.5-.2.5-.6 1.3-.8 2.1-1-.2-.3-.6 0-.6-.3 0-.2.2-.2.3-.2h-.3c-.3-.2-.2-.5-.2-.6 1-1.1 1-2.5 1.4-3.8-.2 0-.3 0-.3-.2-1.6 1.7-4.1 2.4-6.5 3h-.8c-.8.3-1.9.3-2.7-.2-.6-.3-1-.8-1.6-1.3-1.3-.8-2.5-1.4-4-1.9-4-1.3-8.1-1.9-12.2-1.7 1.7-1 3.7-1 5.5-1.6 2.7-.8 5.2-1.7 8.1-1.6-.5-.2-1.1 0-1.6 0-2.2-.2-4.4.5-6.8 1-1.6.3-3 1-4.6 1.3-1 .3-1.4 1.3-2.5 1.1v-.5c1.6-1.9 3.5-3.8 6-4 2.9-.5 5.5 0 8.4.3 2.1.2 4 .6 6 1.1.8 0 1 1.3 1.6 1.4 1 .3 1.9 0 2.9.6 0-.3-.2-.6 0-1 .6-.6 1.4.2 2.1-.2 1.3-.8-1.1-2.2-1.7-3.3 0-.2.2-.3.2-.3 1.3 1.1 2.2 2.4 3.8 3.2.8.3 2.7.8 2.4-.2-.8-1.7-2.4-3.2-3.6-4.8v-.6c-.3 0-.3-.2-.5-.3v-.6c-.6-.3-.5-1-.8-1.4-.5-.8-.2-1.9-.5-2.9s-.5-1.7-.6-2.7c-.5-2.7-1.1-5.1-1.4-7.6-.3-3 1.7-5.4 3.2-8.1 1.1-1.9 2.4-3.8 4.4-5.1.5-1.9 1.7-3.5 3-5.1 1.3-1.5 3.4-2.5 4.9-3.2 2.2-1 4.2-1.6 4.2-1.6H83.8v83.9h77c3-2.2 6-3.2 10.2-5.3 2-.7 6.6-2.8 8.1-4.3m-24.3-11.4c-.3 0-1 .2-.8-.2.2-.8 1.3-.8 1.9-1.1.3-.2.8-.5 1.1-.3.3.5.8.3 1.1.6-1 1-2.2.5-3.3 1m-24.3-3.5s-.2-.2-.2-.3c2.1-2.7 3.6-5.2 5.1-8.1 2.1-1.1 3.8-2.7 5.4-4.4 2.7-2.9 5.5-5.4 8.9-7 1.3-.5 2.9-.3 4.1.2-.5.6-1.3.5-1.9 1-.2 0-.3 0-.5-.2.2-.2.2-.3.2-.5-1.6 1.7-3.8 2.5-5.1 4.6-1 1.6-1.6 3.6-3.6 4.1-.6.2.2-.5-.2-.3-4.9 3-8.4 6.6-12.2 10.9m13.2-10.4c-.2.3-.3.4-.5.6-.2.3-.3.5-.6.6-.2 0-.3 0-.3-.2.2-.6.6-1.3 1.3-1.4.1 0 .1.2.1.4m7.3 23.7c-.1.2-.2.3-.4.5.2 0 .3.1.2.2-.4.3-.7.7-1.2.8h-.2l-.6.6c-.2.2-1.1 0-.8-.2.4-.4.8-.7 1.2-1.1.2-.2.5-.4.7-.6.1-.1.2-.3.3-.4.1 0 1-.1.8.2m-2.8-1.3c-.6.4-1.2.9-1.8 1.2-.7.4-1.4.7-2.1 1-.1-.1-.2-.1-.3-.1-.6.3-1.1.8-1.6 1.2l-.2.2c-.1.1-.2.1-.2.2-.1.1-.2.2-.3.4-.1.1-.1.2-.2.2-.1.1-.4.1-.3-.1-.1 0-.2.1-.3.1s-.2.1-.2.1h-.2c-.2.2-.4.3-.6.5-.3.3-.6.6-.9 1v.1l-.1.1c0 .1-.1.1-.1.2l-.1.1s0-.1-.1-.1v-.1c0-.1-.1-.2-.1-.3v-.1c.2-.2.3-.4.5-.6l.2-.2.3-.3.1-.1c.2-.2.3-.4.5-.7 0 0 0-.1.1-.1.1-.1.1-.2.2-.3s.1-.2.2-.3v-.1c.1-.1.1-.2.2-.4v-.3c0-.1 0-.2.1-.2v-.1l.6-.9h-.1c-.2.1-.4.3-.6.5-.2.1-.5-.1-.3-.2.1-.1.2-.2.4-.3.3-.3.5-.6.8-.8.2-.1.3-.2.5-.4l.1-.1c.1-.1.2-.3.4-.4 1.5-1.5 4.1-1.4 6.1-2.3.8-.3 1.7.2 2.5 0 .5 0 1 0 1.4.3-1.9.8-3.2 1.7-4.5 2.5m3.2-11c-.2-.2.5 0 .6-.3h-1.3c-.2 0-.2-.2-.2-.3-.8.2-1.7.5-2.5.6-1.1.3-2.1 1.1-3.3 1.4-1.7.6-3.2 2.1-5.1 2.7-.2 0-.2-.2-.2-.3.2-.5.8-.6 1.1-1.1 0-.2 0-.3-.2-.3 1.3-1.7 3-2.7 4.6-4.1v-.5c.5-.6 1.3-1 1.6-1.7.2-.5.8-1.1 1.6-1.4-.2-.2-.5-.2-.5-.5-.6 0-1.3.3-1.9-.2.3-.3.6-.5 1-.6-.1 0-.3-.1-.4-.2-.2-.3.3-.7.8-.8.6-.2 1.4-.2 1.9-.6-1.1-.2-2.4.3-3.5-.3.8-2.1 2.1-3.8 4-4.8.2 0 .5 0 .5.2 0 .8-.5 1.4-1.3 1.6 1.3.3 2.5.3 3.8 1-.2.3-.5.2-.6.2.8.5 1.7.2 2.5.8-.5.5-1 0-1.4 0 4.9 1.4 10.1 2.5 14.3 5.7-3.5 1.7-7.1 2.5-10.9 3.3-.5 0-.8 0-1.3-.2 0 .2 0 .5-.2.5-.6 0-1.1 0-1.6.3-.4.2-1.4.3-1.9-.1" style="fill:#000091"/><path d="M314.4 83.8h-90.2s.2 0 .9.4 1.7.9 2.3 1.2c1.2.6 2.3 1.4 3 2.5.3.5.8 1.4.5 2.1-.3.8-.5 2.1-1.3 2.4-1 .5-2.2.5-3.3.3-.6 0-1.3-.2-1.9-.3 2.4 1 4.6 2.1 6.2 4.3.2.3.8.5 1.4.5.2 0 .2.3.2.5-.3.3-.6.5-.5 1h.5c.8-.3.6-1.9 1.7-1.4.8.5 1.1 1.6.6 2.4-.6.6-1.3 1.1-1.9 1.6-.2.3-.2.8 0 1.1.5.6.6 1.3.8 1.9.5 1.1.6 2.4 1.1 3.5.6 2.4 1.3 4.8 1.1 7.1 0 1.3-.6 2.4-.2 3.6.3 1.3 1.1 2.2 1.7 3.3.6 1 1.3 1.6 1.7 2.5 1 1.6 2.7 3.2 1.9 5.1-.5 1.1-2.2 1-3.3 1.6-1 .8-.2 2.1.3 2.9.8 1.4-1 2.4-2.1 2.9.3.5 1 .3 1.1.6.2.8 1 1.3.5 2.1-.6 1-2.5 1.4-1.6 2.9.6 1.1.2 2.3-.2 3.5-.5 1.4-1.7 2.1-2.9 2.4-1 .3-2.1.3-3 .2-.3-.2-.6-.3-1-.3-2.7-.3-5.4-1.1-8.1-1.1-.8.2-1.6.3-2.2.6-.7.5-1.4 1.1-1.9 1.7-.1.1-.2.3-.3.4s-.1.2-.2.2c0 .1-.1.1-.1.2q-.75.9-1.2 1.8s0 .1-.1.1c0 .1-.1.1-.1.2-.5 1-.9 1.9-1.2 2.9-1.1 3.6-.6 6.7.1 7.5.2.2 5.2 1.8 8.7 3.3 1.6.7 2.8 1.3 3.7 1.9h88.6V83.8z" style="fill:#e1000f"/><path d="M229.6 114.4c.6.2 1.6.2 1.6.5-.3 1.3-2.2 1.6-3.2 2.9h-.5c-.5.3-.3 1.1-.8 1.1-.5-.2-1 0-1.4.2.6.6 1.4 1.1 2.4 1 .2 0 .5.3.5.6 0 0 .2 0 .3-.2.2 0 .3 0 .3.2v.6c-.5.6-1.3.3-1.9.5q1.95.45 3.6 0c1-.3 0-1.9.6-2.7-.3 0 0-.5-.3-.5.3-.3.6-.8 1-1 .3 0 .8-.2 1-.5 0-.3-.6-.5-.5-.8 1-.6 1.7-1.6 1.4-2.5-.2-.5-1.4-.5-2.2-.8s-1.7 0-2.7.2c-.8 0-1.6.5-2.4.6-1.1.3-2.1 1-3 1.6 1.1-.5 2.2-.6 3.5-1 .9 0 1.7-.3 2.7 0" style="fill:#9d9d9c"/><path d="M98.3 274.8H85.2v-64.4h16.3l15.7 27 15.7-27h16.3v64.4h-13.1v-46.2l-14.4 24.1h-9.2l-14.4-24.1v46.2zM179.4 274.8h-13.1v-64.4h13.1zM209.5 274.8h-13.1v-64.4h16.7l28.8 46.6v-46.6H255v64.4h-16.7l-28.8-46.6zM285.3 274.8h-13.1v-64.4h13.1zM320.4 276.6c-5 0-9.5-.9-13.4-2.6s-7.4-4.5-10.4-8.1l9.5-8.7c2 2.5 4.2 4.5 6.7 5.8 2.5 1.4 5 2.1 7.6 2.1s4.6-.7 6.1-2 2.2-3.1 2.2-5.4q0-2.7-2.1-4.8c-1.4-1.4-4.5-3.2-9.2-5.2-3.7-1.6-6.4-2.9-8.1-4-1.7-1-3.2-2.1-4.4-3.3-1.8-1.7-3.2-3.7-4.1-5.8-.9-2.2-1.3-4.6-1.3-7.3 0-5.3 2-9.7 5.9-13.3s8.9-5.4 14.9-5.4q6.6 0 12.3 2.7c3.8 1.8 7.2 4.5 10.3 8.1l-9.6 8.6c-2.1-2.7-4.2-4.7-6.3-6.1-2.1-1.3-4.3-2-6.5-2-2.3 0-4.1.6-5.5 1.9s-2.1 2.9-2.1 4.9c0 1.8.7 3.3 2.1 4.7 1.4 1.3 4.4 3.1 9.2 5.2 3.7 1.6 6.4 2.9 8.1 4q2.55 1.5 4.5 3.3c1.8 1.8 3.2 3.8 4.1 6s1.3 4.7 1.3 7.4c-.1 5.8-2.1 10.5-6.1 14.1-4.3 3.4-9.4 5.2-15.7 5.2M367.4 274.8v-52.5h-19.9v-11.9h52.8v11.9h-19.9v52.5zM410.9 274.8v-64.4h37.5v10.9H424v15.3h20.8v10.9H424v16.6h24.5V275h-37.6zm25-69.9h-12L412 192.4h13.4zM475.8 274.8h-13.1v-64.4h19.7c7.1 0 12.7 1.7 16.8 5.2 4.1 3.4 6.1 8.1 6.1 14.1q0 5.85-2.7 10.2c-1.8 2.9-4.4 5-7.7 6.6l20.1 28.4h-15.4l-17.2-26h-6.699999999999999v25.9zm16.1-45.4c0-2.5-.8-4.5-2.3-6-1.6-1.5-3.7-2.2-6.4-2.2h-7.4v16.7h7.4c2.8 0 4.9-.8 6.4-2.3s2.3-3.5 2.3-6.2M522.4 274.8v-64.4H560v10.9h-24.5v15.3h20.8v10.9h-20.8v16.6H560V275h-37.6zM144.8 334.6c0 9.1-3.3 16.7-9.8 22.9s-14.7 9.3-24.5 9.3H85.2v-64.4h25.3c9.8 0 18 3.1 24.5 9.3s9.8 13.8 9.8 22.9m-34.1-20.3H98.3V355h12.4c5.9 0 10.8-1.9 14.7-5.8s5.9-8.7 5.9-14.5-1.9-10.7-5.8-14.5c-3.9-4-8.8-5.9-14.8-5.9M181.5 356.4c4 0 7.2-1.2 9.5-3.6s3.5-5.8 3.5-10.1v-40.3h13.1v39.2q0 12.6-6.9 19.8t-19.2 7.2c-8.1 0-14.5-2.4-19.1-7.2q-6.9-7.2-6.9-19.8v-39.2h13.1v40.3c0 4.3 1.1 7.7 3.5 10.1 2.1 2.4 5.3 3.6 9.4 3.6M259 366.8v-52.5h-19.9v-11.9H292v11.9h-19.9v52.5zM315.6 366.8h-13.1v-64.4h19.7c7.1 0 12.7 1.7 16.8 5.2 4.1 3.4 6.1 8.1 6.1 14.1q0 5.85-2.7 10.2c-1.8 2.9-4.4 5-7.7 6.6l20.1 28.4h-15.4l-17.2-26h-6.699999999999999v25.9zm16.1-45.4c0-2.5-.8-4.5-2.3-6-1.6-1.5-3.7-2.2-6.4-2.2h-7.4v16.7h7.4c2.8 0 4.9-.8 6.4-2.3s2.3-3.5 2.3-6.2M370.8 366.8h-13.9l24.4-64.4h17.1l24.4 64.4h-13.9l-6.2-16.7H377zm10.2-27.9h17.7l-8.8-24.2zM442.4 366.8 418 302.4h13.9l19 50.3 19-50.3h13.9l-24.4 64.4zM493 366.8h-13.9l24.4-64.4h17.1l24.4 64.4h-13.9l-6.2-16.7h-25.8zm10.2-27.9h17.7l-8.8-24.2zM567 366.8h-13v-64.4h13zM621.7 354.9v11.9h-37.5v-64.4h13.1v52.5zM144.8 426.6c0 9.1-3.3 16.7-9.8 22.9s-14.7 9.3-24.5 9.3H85.2v-64.4h25.3c9.8 0 18 3.1 24.5 9.3s9.8 13.8 9.8 22.9m-34.1-20.3H98.3V447h12.4c5.9 0 10.8-1.9 14.7-5.8s5.9-8.7 5.9-14.5-1.9-10.7-5.8-14.5c-3.9-4-8.8-5.9-14.8-5.9M156.5 458.8v-64.4H194v10.9h-24.5v15.3h20.8v10.9h-20.8v16.6H194V459h-37.5zM268.8 446.9v11.9h-37.5v-64.4h13.1v52.5zM287.9 458.8H274l24.4-64.4h17.1l24.4 64.4H326l-6.2-16.7H294zm10.2-27.9h17.7l-8.8-24.2zM389.9 460.6c-5 0-9.5-.9-13.4-2.6s-7.4-4.5-10.4-8.1l9.5-8.7c2 2.5 4.2 4.5 6.7 5.8 2.5 1.4 5 2.1 7.6 2.1s4.6-.7 6.1-2 2.2-3.1 2.2-5.4q0-2.7-2.1-4.8c-1.4-1.4-4.5-3.2-9.2-5.2-3.7-1.6-6.4-2.9-8.1-4-1.7-1-3.2-2.1-4.4-3.3-1.8-1.7-3.2-3.7-4.1-5.8-.9-2.2-1.3-4.6-1.3-7.3 0-5.3 2-9.7 5.9-13.3 4-3.6 8.9-5.4 14.9-5.4q6.6 0 12.3 2.7c3.8 1.8 7.2 4.5 10.3 8.1l-9.6 8.6c-2.1-2.7-4.2-4.7-6.3-6.1-2.1-1.3-4.3-2-6.5-2-2.3 0-4.1.6-5.5 1.9s-2.1 2.9-2.1 4.9c0 1.8.7 3.3 2.1 4.7 1.4 1.3 4.4 3.1 9.2 5.2 3.7 1.6 6.4 2.9 8.1 4s3.2 2.1 4.5 3.3c1.8 1.8 3.2 3.8 4.1 6s1.3 4.7 1.3 7.4c-.1 5.8-2.1 10.5-6.1 14.1-4.3 3.4-9.4 5.2-15.7 5.2M429.6 458.8h-13.9l24.4-64.4h17.1l24.4 64.4h-13.9l-6.2-16.7h-25.8zm10.2-27.9h17.7l-8.8-24.2zM503.7 458.8h-13.1v-64.4h16.7l28.8 46.6v-46.6h13.1v64.4h-16.7l-28.8-46.6zM579.6 458.8v-52.5h-19.9v-11.9h52.8v11.9h-19.9v52.5zM623.1 458.8v-64.4h37.5v10.9h-24.5v15.3h20.8v10.9h-20.8v16.6h24.5V459h-37.5zm36.5-82.4-12 12.4h-11.9l10.4-12.4zM85.2 550.8v-64.4h37.5v10.9H98.3v15.3h20.8v10.9H98.3v16.6h24.5V551H85.2zM151.7 550.8v-52.5h-19.9v-11.9h52.8v11.9h-19.9v52.5zM277.7 518.6c0 9.1-3.3 16.7-9.8 22.9s-14.7 9.3-24.5 9.3h-25.3v-64.4h25.3c9.8 0 18 3.1 24.5 9.3 6.6 6.2 9.8 13.8 9.8 22.9m-34-20.3h-12.4V539h12.4c5.9 0 10.8-1.9 14.7-5.8s5.9-8.7 5.9-14.5-1.9-10.7-5.8-14.5c-4-4-8.9-5.9-14.8-5.9M289.4 550.8v-64.4h37.5v10.9h-24.5v15.3h20.8v10.9h-20.8v16.6h24.5V551h-37.5zM359.2 552.6c-5 0-9.5-.9-13.4-2.6s-7.4-4.5-10.4-8.1l9.5-8.7c2 2.5 4.2 4.5 6.7 5.8 2.5 1.4 5 2.1 7.6 2.1s4.6-.7 6.1-2 2.2-3.1 2.2-5.4q0-2.7-2.1-4.8c-1.4-1.4-4.5-3.2-9.2-5.2-3.7-1.6-6.4-2.9-8.1-4-1.7-1-3.2-2.1-4.4-3.3-1.8-1.7-3.2-3.7-4.1-5.8-.9-2.2-1.3-4.6-1.3-7.3 0-5.3 2-9.7 5.9-13.3 4-3.6 8.9-5.4 14.9-5.4q6.6 0 12.3 2.7c3.8 1.8 7.2 4.5 10.3 8.1l-9.6 8.6c-2.1-2.7-4.2-4.7-6.3-6.1-2.1-1.3-4.3-2-6.5-2-2.3 0-4.1.6-5.5 1.9s-2.1 2.9-2.1 4.9c0 1.8.7 3.3 2.1 4.7 1.4 1.3 4.4 3.1 9.2 5.2 3.7 1.6 6.4 2.9 8.1 4s3.2 2.1 4.5 3.3c1.8 1.8 3.2 3.8 4.1 6s1.3 4.7 1.3 7.4c-.1 5.8-2.1 10.5-6.1 14.1-4.3 3.4-9.4 5.2-15.7 5.2M434.5 552.6c-5 0-9.5-.9-13.4-2.6s-7.4-4.5-10.4-8.1l9.5-8.7c2 2.5 4.2 4.5 6.7 5.8 2.5 1.4 5 2.1 7.6 2.1s4.6-.7 6.1-2 2.2-3.1 2.2-5.4q0-2.7-2.1-4.8c-1.4-1.4-4.5-3.2-9.2-5.2-3.7-1.6-6.4-2.9-8.1-4-1.7-1-3.2-2.1-4.4-3.3-1.8-1.7-3.2-3.7-4.1-5.8-.9-2.2-1.3-4.6-1.3-7.3 0-5.3 2-9.7 5.9-13.3 4-3.6 8.9-5.4 14.9-5.4q6.6 0 12.3 2.7c3.8 1.8 7.2 4.5 10.3 8.1l-9.6 8.6c-2.1-2.7-4.2-4.7-6.3-6.1-2.1-1.3-4.3-2-6.5-2-2.3 0-4.1.6-5.5 1.9s-2.1 2.9-2.1 4.9c0 1.8.7 3.3 2.1 4.7 1.4 1.3 4.4 3.1 9.2 5.2 3.7 1.6 6.4 2.9 8.1 4s3.2 2.1 4.5 3.3c1.8 1.8 3.2 3.8 4.1 6s1.3 4.7 1.3 7.4c-.1 5.8-2.1 10.5-6.1 14.1-4.3 3.4-9.5 5.2-15.7 5.2M462.4 518.6c0-9.6 3.2-17.6 9.8-24.2 6.5-6.6 14.7-9.8 24.5-9.8s17.9 3.3 24.4 9.8c6.5 6.6 9.8 14.6 9.8 24.2s-3.3 17.6-9.8 24.2-14.6 9.8-24.4 9.8-18-3.3-24.5-9.8c-6.6-6.6-9.8-14.6-9.8-24.2m13.4 0c0 6.3 2 11.5 5.9 15.6s8.9 6.2 14.9 6.2c5.9 0 10.9-2.1 14.8-6.2s5.9-9.3 5.9-15.6-2-11.5-5.9-15.6-8.9-6.2-14.8-6.2c-6 0-11 2.1-14.9 6.2-4 4.1-5.9 9.3-5.9 15.6M579.8 538.9v11.9h-37.5v-64.4h13.1v52.5zM603.5 550.8h-13.1v-64.4h13.1zM680.1 518.6c0 9.1-3.3 16.7-9.8 22.9s-14.7 9.3-24.5 9.3h-25.3v-64.4h25.3c9.8 0 18 3.1 24.5 9.3 6.6 6.2 9.8 13.8 9.8 22.9m-34-20.3h-12.4V539h12.4c5.9 0 10.8-1.9 14.7-5.8s5.9-8.7 5.9-14.5-1.9-10.7-5.8-14.5c-4-4-8.9-5.9-14.8-5.9M696.1 550.8h-13.9l24.4-64.4h17.1l24.4 64.4h-13.9L728 534h-25.8zm10.2-27.9H724l-8.8-24.2zM770.2 550.8h-13.1v-64.4h19.7c7.1 0 12.7 1.7 16.8 5.2 4.1 3.4 6.1 8.1 6.1 14.1q0 5.85-2.7 10.2c-1.8 2.9-4.4 5-7.7 6.6l20.1 28.4H794l-17.2-26h-6.699999999999999v25.9zm16.1-45.4c0-2.5-.8-4.5-2.3-6-1.6-1.5-3.7-2.2-6.4-2.2h-7.4v16.7h7.4c2.8 0 4.9-.8 6.4-2.3s2.3-3.5 2.3-6.2M829.9 550.8h-13.1v-64.4h13.1zM860.2 550.8v-52.5h-19.9v-11.9h52.8v11.9h-19.9v52.5zM903.8 550.8v-64.4h37.5v10.9h-24.5v15.3h20.8v10.9h-20.8v16.6h24.5V551h-37.5zm36.5-82.4-12 12.4h-11.9l10.4-12.4zM973.6 552.6c-5 0-9.5-.9-13.4-2.6s-7.4-4.5-10.4-8.1l9.5-8.7c2 2.5 4.2 4.5 6.7 5.8 2.5 1.4 5 2.1 7.6 2.1s4.6-.7 6.1-2 2.2-3.1 2.2-5.4q0-2.7-2.1-4.8c-1.4-1.4-4.5-3.2-9.2-5.2-3.7-1.6-6.4-2.9-8.1-4-1.7-1-3.2-2.1-4.4-3.3-1.8-1.7-3.2-3.7-4.1-5.8-.9-2.2-1.3-4.6-1.3-7.3 0-5.3 2-9.7 5.9-13.3 4-3.6 8.9-5.4 14.9-5.4q6.6 0 12.3 2.7c3.8 1.8 7.2 4.5 10.3 8.1l-9.6 8.6c-2.1-2.7-4.2-4.7-6.3-6.1-2.1-1.3-4.3-2-6.5-2-2.3 0-4.1.6-5.5 1.9s-2.1 2.9-2.1 4.9c0 1.8.7 3.3 2.1 4.7 1.4 1.3 4.4 3.1 9.2 5.2 3.7 1.6 6.4 2.9 8.1 4s3.2 2.1 4.5 3.3c1.8 1.8 3.2 3.8 4.1 6s1.3 4.7 1.3 7.4c-.1 5.8-2.1 10.5-6.1 14.1-4.3 3.4-9.5 5.2-15.7 5.2"/></svg>
