<svg xmlns="http://www.w3.org/2000/svg" viewBox="0 0 143 81.2"><path d="M29.4 78.1c.2 0 .5.2.3.7l-1 .2c.2-.5.5-.9.7-.9m.7 1.8h-.2c-.3.3-.6.6-.9.6s-.5-.2-.5-.6c0-.2 0-.3.1-.5l1.8-.6c.4-.8-.1-1.2-.6-1.2-.9 0-1.9 1.5-1.9 2.7 0 .6.3.9.7.9.5 0 1.1-.5 1.5-1.3m-.4-2.6 1.3-1.2V76h-.7l-.8 1.3zm-3.9.8h.6l-1 2.6c-.1.2 0 .5.3.5.6 0 1.4-.5 1.7-1.3h-.2c-.2.3-.7.6-1.1.7l.9-2.5h.9l.1-.4h-.9l.3-1H27l-.6 1-.7.1v.3zm-.9-.1c.1-.2-.1-.4-.2-.4-.5 0-1.2.5-1.4 1.1h.2c.2-.2.5-.5.7-.6l-1 2.6c-.1.2.1.4.2.4.5 0 1.1-.5 1.3-1.1h-.2c-.2.2-.5.5-.7.6zm.2-1.3c.2 0 .4-.2.4-.4s-.2-.4-.4-.4-.4.2-.4.4.2.4.4.4m-5.8 4c-.1.3 0 .5.3.5.2 0 .3 0 .3-.2l.7-1.9c.3-.4 1-.8 1.3-.8.2 0 .2.2 0 .4l-1.1 2.1c-.1.2 0 .5.3.5.5 0 1.2-.5 1.4-1.1h-.2c-.2.2-.5.5-.7.6l.9-1.9c.1-.2.2-.5.2-.6 0-.3-.2-.5-.5-.5-.5 0-.9.5-1.5 1.2v-.5c0-.4-.1-.7-.4-.7-.2 0-.4.2-.6.4v.1c.3 0 .5.5.3 1zm0-2.3c.1-.4.1-.8-.3-.8s-.5.3-.9 1.2v-.5c0-.4-.1-.7-.4-.7-.4 0-.7.6-1 1.1h.2c.2-.3.3-.4.5-.4s.2.2 0 .8l-.7 1.6c-.1.3 0 .5.3.5.2 0 .3 0 .3-.2l.7-1.9c.2-.2.4-.5.6-.7zm-4.1-.3c.2 0 .5.2.3.7l-1.1.2c.2-.5.5-.9.8-.9m.6 1.8h-.2c-.3.3-.6.6-.9.6s-.5-.2-.5-.6c0-.2 0-.3.1-.5l1.8-.6c.4-.8-.1-1.2-.6-1.2-.9 0-1.9 1.5-1.9 2.7 0 .6.3.9.7.9.6 0 1.1-.5 1.5-1.3m-4.3-1.8h.6l-1 2.6c-.1.2 0 .5.3.5.6 0 1.4-.5 1.7-1.3H13c-.2.3-.7.6-1.1.7l.9-2.5h.9l.1-.4h-.9l.3-1h-.4l-.6 1-.7.1zm-3.4 2.1c0-.8.9-1.9 1.4-1.9h.3l-.5 1.4c-.3.4-.8.8-1 .8-.1 0-.2-.1-.2-.3m2.8-2.7h-.3l-.3.3h-.1c-1.5 0-2.8 1.7-2.8 2.9 0 .3.2.5.5.5.4 0 .8-.6 1.2-1.2v.2c-.1.6.1.9.5.9s.7-.6 1-1.1h-.2c-.2.3-.3.4-.5.4-.1 0-.2-.3 0-.8zm-3.2.9c.1-.4.1-.8-.3-.8s-.5.3-.9 1.2v-.5c0-.4-.1-.7-.4-.7-.4 0-.7.6-1 1.1h.2c.2-.3.3-.4.5-.4s.2.2 0 .8l-.7 1.6c-.1.3 0 .5.3.5.2 0 .3 0 .3-.2l.7-1.9c.2-.2.4-.5.6-.7zm-5.1 2.7.1-.2c-.9-.2-1-.2-.6-1.1l.4-1h1c.4 0 .4.2.4.7H4l.6-1.6h-.2c-.2.4-.4.7-.9.7h-1l.5-1.5c.2-.4.3-.5.8-.5h.4c.6 0 .7.2.7.8h.2l.2-1.1H1.8l-.1.2c.7.1.8.2.4 1.1l-.8 2.2c-.3.9-.5 1-1.3 1.1v.2zm18-11.3c.2 0 .5.2.3.7l-1.1.3c.2-.6.5-1 .8-1m.6 1.8H21c-.3.3-.6.6-.9.6s-.5-.2-.5-.6c0-.2 0-.3.1-.5l1.8-.6c.4-.8-.1-1.2-.6-1.2-.9 0-1.9 1.5-1.9 2.7 0 .6.3.9.7.9.6 0 1.1-.5 1.5-1.3m-.4-2.6 1.3-1.2v-.1h-.7l-.8 1.3zm-3.9.8h.6l-1 2.6c-.1.2 0 .5.3.5.6 0 1.4-.5 1.7-1.3h-.2c-.2.3-.7.6-1.1.7l.9-2.5h.9l.1-.4h-.9l.3-1h-.4l-.6 1-.7.1v.3zm-.8-.1c.1-.2-.1-.4-.2-.4-.5 0-1.2.5-1.4 1.1h.2c.2-.2.5-.5.7-.6l-1 2.6c-.1.2.1.4.2.4.5 0 1.1-.5 1.3-1.1h-.2c-.2.2-.5.5-.7.6zm.1-1.3c.2 0 .4-.2.4-.4s-.2-.4-.4-.4-.4.2-.4.4.2.4.4.4m-3.5 3.9 1.8-4.8-.1-.1-1.2.1v.1l.2.2c.2.2.1.3 0 .8L12 72.4c-.1.2 0 .5.3.5.5 0 1.1-.5 1.3-1.1h-.2c-.1.2-.4.5-.7.5m-3.5-.4c0-.8.9-1.9 1.4-1.9h.3l-.5 1.4c-.3.4-.8.8-1 .8-.1 0-.2-.1-.2-.3m2.8-2.7h-.3l-.3.3h-.1c-1.5 0-2.8 1.7-2.8 2.9 0 .3.2.5.5.5.4 0 .8-.6 1.2-1.2v.2c-.1.6.1.9.5.9s.7-.6 1-1.1h-.2c-.2.3-.3.4-.5.4-.1 0-.2-.3 0-.8zm-6.8 4.4c0-.4.3-.6.8-.8.2.1.4.2.7.3.5.2.7.2.7.4 0 .3-.6.6-1.3.6-.6-.1-.9-.2-.9-.5m1.4-2.2c-.2 0-.3-.2-.3-.4 0-.6.3-1.5.8-1.5.2 0 .3.2.3.4 0 .7-.3 1.5-.8 1.5m1.5 1.8c0-.4-.4-.6-1-.8-.5-.2-.8-.2-.8-.4 0-.1.1-.3.3-.4.9 0 1.4-.8 1.4-1.5 0-.1 0-.3-.1-.4h.7l.1-.4h-1c-.1-.1-.3-.1-.5-.1-.9 0-1.5.8-1.5 1.5 0 .5.3.8.7.9-.4.2-.7.4-.7.7 0 .2.1.3.2.4-1 .3-1.4.6-1.4 1.1s.6.6 1.3.6c1.2 0 2.3-.6 2.3-1.2m-4.7-2.8c.4 0 .4.2.4.7H4l.6-1.6h-.2c-.2.4-.4.7-.9.7h-1l.5-1.4c.2-.4.3-.5.8-.5h.4c.7 0 .8.1.8.7h.2l.2-1H1.8l-.1.2c.7.1.8.2.4 1.1l-.8 2.2c-.3.9-.5 1-1.3 1.1v.2h4.1l.7-1.2h-.3c-.5.4-1 .9-1.9.9-1.1 0-1 0-.6-1l.4-1.1zm.5-2.8 1.3-.9v-.1h-.7l-.7 1zm16.2-6.1c.2 0 .5.2.3.7l-1.1.3c.2-.6.6-1 .8-1m.7 1.9h-.2c-.3.3-.6.6-.9.6s-.5-.2-.5-.6c0-.2 0-.3.1-.5l1.8-.6c.4-.8-.1-1.2-.6-1.2-.9 0-1.9 1.5-1.9 2.7 0 .6.3.9.7.9.5-.1 1-.5 1.5-1.3m-.4-2.7 1.3-1.2v-.1H21l-.8 1.3zm-3.8.8h.5l-1 2.6c-.1.2 0 .5.3.5.6 0 1.4-.5 1.7-1.3H18c-.2.3-.7.6-1.1.7l.9-2.5h.9l.1-.4h-.9l.3-1h-.4l-.6 1-.6.1zm-.5.3c.1-.4.1-.8-.3-.8s-.5.3-.9 1.2v-.5c0-.4-.1-.7-.4-.7-.4 0-.7.6-1 1.1h.2c.2-.3.3-.4.5-.4s.2.2 0 .8l-.7 1.6c-.1.3 0 .5.3.5.2 0 .3 0 .3-.2l.7-1.9c.2-.2.4-.5.6-.7zm-4-.3c.2 0 .5.2.3.7l-1.1.3c.2-.6.5-1 .8-1m.6 1.9h-.2c-.3.3-.6.6-.9.6s-.5-.2-.5-.6c0-.2 0-.3.1-.5l1.8-.6c.4-.8-.1-1.2-.6-1.2-.9 0-1.9 1.5-1.9 2.7 0 .6.3.9.7.9.6-.1 1.1-.5 1.5-1.3m-4.5.7c-.2 0-.4-.2-.4-.3 0 0 .1-.3.2-.5l.3-.8c.3-.4.8-.8 1.1-.8.2 0 .3.1.3.4-.1.7-.8 2-1.5 2m2.1-2.3c0-.5-.2-.7-.6-.7-.5 0-.9.5-1.3 1.1l1.1-2.9-.1-.1-1.2.1v.1l.2.2c.2.2.1.3 0 .8l-1.2 3.1c-.1.2-.2.5-.2.6 0 .3.4.6.8.6 1-.1 2.5-1.7 2.5-2.9m-3.6-.4c0-.2-.1-.4-.2-.4-.5 0-1.2.5-1.4 1.1h.2c.2-.2.5-.5.7-.6l-1 2.6c-.1.2.1.4.2.4.5 0 1.1-.5 1.3-1.1h-.2c-.2.2-.5.5-.7.6zm.2-1.3c.2 0 .4-.2.4-.4s-.2-.4-.4-.4-.4.2-.4.4c-.1.2.1.4.4.4m-2.7-.4H1.8l-.1.2c.7.1.8.2.5 1.1l-.8 2.2c-.3.9-.5 1-1.3 1.1l-.1.2h3.7l.8-1.4h-.3c-.5.5-1 1.1-1.8 1.1-.6 0-.7-.1-.4-1l.8-2.2c.3-.9.5-1 1.3-1.1z"/><path fill="#000091" d="m13.6 10.6.4-.4c.2-.3.5-.5.8-.8.1-.1.2-.1.2-.2v-.1c-.1 0-.2.1-.3.2.1-.1.2-.1.2-.2-.3 0-.5.2-.7.3h-.1c-.3.1-.6.4-.9.5-.1 0-.3.1-.4.2h-.6c-.3 0-.5.1-.8.1-.1 0-.3.1-.4.2 0 .1-.1.1-.2.1-.1.1-.3.2-.4.3s-.2.2-.4.3h-.1s0-.1.1-.1c0 0 0-.1.1-.1l.1-.1c.1-.1.2-.2.4-.3v-.1s-.1 0-.1.1c-.1 0-.1.1-.2.1v-.1c0-.1.1-.1.2-.1s.2-.1.3-.1c-.1 0-.2.1-.4.2h-.1l.1-.1c.7-.6 1.7-.4 2.6-.7.1 0 .1-.1.2-.1s.2-.2.3-.2c.2-.1.3-.3.4-.5-.3.3-.6.6-1 .7-.5.2-1 .2-1.5.3h.1c0-.1 0-.1.1-.1h.2c-.1-.1-.2.1-.3 0 0 0 0-.1.1-.1h.1v-.1c.3-.2.7-.4 1-.5-.1 0-.1.1-.2 0V9c.2-.1.5-.2.7-.3-.1 0-.2.1-.2 0l.1-.1v-.1s.1 0 .1-.1h-.1c.1-.1.2-.1.3-.1h-.1v-.1c.1-.2.1-.4.2-.5-.2.2-.6.3-.9.4h-.5c-.1 0-.1-.1-.2-.2l-.6-.3c-.6-.2-1.2-.3-1.7-.2.2-.1.5-.1.8-.2.4-.1.7-.2 1.2-.2h-.2c-.3 0-.6.1-1 .1-.2 0-.4.1-.7.2-.1 0-.2.2-.4.2v-.1c.2-1.1.5-1.3.9-1.4s.8 0 1.2 0c.3 0 .6.1.9.2.1 0 .1.2.2.2s.3 0 .4.1v-.1c.1-.1.2 0 .3 0 .2-.1-.2-.3-.2-.5l.5.5c.1 0 .4.1.3 0-.1-.2-.3-.5-.5-.7v-.1h-.1v-.1c-.1 0-.1-.1-.1-.2-.1-.1 0-.3-.1-.4 0-.1-.1-.2-.1-.4-.1-.4-.2-.7-.2-1.1s.2-.8.5-1.2c.2-.3.3-.5.6-.7.1-.3.2-.5.4-.7s.5-.4.7-.5c.4-.2.7-.3.7-.3H0v12h11c.4-.3.9-.5 1.5-.8.3-.1.9-.4 1.1-.6M10.2 9h-.1c0-.1.2-.1.3-.2 0 0 .1-.1.2 0 0 .1.1 0 .2.1-.3.1-.5 0-.6.1m-3.5-.5s0-.1 0 0c.3-.5.5-.8.7-1.2.3-.2.5-.4.8-.6.4-.4.8-.8 1.3-1 .2-.1.4 0 .6 0-.1 0-.3 0-.3.1h-.1v-.1c-.2.2-.5.4-.7.7-.2.2-.2.5-.5.5-.1 0 0-.1 0 0-.8.4-1.3 1-1.8 1.6M8.6 7q-.15 0 0 0c-.1.1-.1.1-.2.1 0-.1.1-.2.2-.1q0-.15 0 0m1 3.4v.1c-.1 0-.1.1-.2.1l-.1.1h-.1l.2-.2.1-.1v-.1s.1 0 .1.1m-.4-.2c-.1 0-.2.1-.2.2-.1.1-.2.1-.3.1s-.2.1-.2.2v.1s-.1 0 0 0c0 0-.1 0-.1.1l-.1.1s0-.1.1-.1c0 0 0-.1.1-.1v-.1l.1-.1-.1.1s-.1 0 0 0h.1l.1-.1.1-.1.1-.1c.2-.2.6-.2.9-.3h.6c-.8-.2-1 0-1.2.1m.5-1.6s.1 0 0 0-.1-.1-.1-.1c-.1 0-.2.1-.4.1s-.3.2-.5.2c-.2.1-.4.3-.7.4 0-.1.1-.1.1-.2.2-.2.4-.4.7-.6v-.1c0-.1.2-.2.2-.3l.2-.2s-.1 0-.1-.1h-.3l.1-.1h-.1s0-.1.1-.1.2 0 .3-.1h-.5c.3-.3.5-.6.7-.7h.1c0 .1-.1.2-.2.2.2 0 .4 0 .5.1h-.1c.1.1.2 0 .4.1-.1.1-.1 0-.2 0 .7.2 1.5.4 2 .8-.5.2-1 .4-1.6.5h-.2v.1h-.2c0 .1-.1.2-.2.1"/><path fill="#e1000f" d="M33 0H20.1l.1.1c.1.1.2.1.3.2.2.1.3.2.4.4 0 .1.1.2.1.3 0 0 0 .2-.1.2-.1.1-.3.1-.5 0h-.3c.3.1.7.3.9.6 0 0 .1.1.2.1V2l-.1.1h.1c.1 0 .1-.3.2-.2s.2.2.1.3-.2.2-.3.2v.2c.1.1.1.2.1.3.1.2.1.3.2.5.1.3.2.7.2 1 0 .2-.1.3 0 .5 0 .2.2.3.2.5.1.1.2.2.2.4.1.2.4.5.3.7s-.3.1-.5.2c-.1.1 0 .3 0 .4.1.2-.1.3-.3.4 0 .1.1 0 .2.1 0 .1.1.2.1.3-.1.1-.4.2-.2.4.1.2 0 .3 0 .5-.1.2-.2.3-.4.3h-.5c-.4 0-.8-.1-1.2-.1-.1 0-.2 0-.3.1s-.2.2-.3.2v.1c-.1.1-.1.2-.2.3s-.1.3-.2.4c-.2.5-.1 1 0 1.1 0 0 .7.3 1.2.5.2.1.4.2.5.3H33z"/><path fill="#9d9d9c" d="M20.9 4.4c.1 0 .2 0 .2.1 0 .2-.3.2-.5.4h-.1c-.1 0 0 .2-.1.2h-.2c.1.1.2.2.3.1 0 0 .1 0 .1.1v.1c-.1.1-.2 0-.3.1h.5c.1 0 0-.3.1-.4V5l.1-.1s.1 0 .1-.1l-.1-.1c.1-.1.2-.2.2-.4 0-.1-.2-.1-.3-.1h-.4c-.1 0-.2.1-.3.1-.2 0-.3.1-.4.2.2-.1.3-.1.5-.1.3 0 .4-.1.6 0"/><path d="M46.7 15.5h1.9M.1 18h2.3l2.2 3.7L6.7 18H9v9H7.2v-6.4l-2 3.3H3.9l-2-3.3V27H.1zm11.5 0h1.8v9h-1.8zm4.4 0h2.3l4 6.5V18h1.8v9h-2.3l-4-6.5V27H16zm10.7 0h1.8v9h-1.8zm4.9 6.5c.5.7 1.3 1.1 2 1.1s1.2-.4 1.2-1c0-1.6-4.1-1.2-4.1-4.3 0-1.4 1.2-2.6 2.9-2.6 1.4 0 2.4.6 3.2 1.5l-1.3 1.2c-.5-.7-1.1-1.1-1.8-1.1-.6 0-1 .4-1 .9 0 1.6 4.1 1.2 4.1 4.3 0 1.7-1.3 2.7-3 2.7-1.5 0-2.6-.6-3.3-1.5zm6-6.5H45v1.7h-2.8V27h-1.8v-7.4h-2.8zm9.1 0H52v1.6h-3.4v2.1h2.9v1.6h-2.9v2.3H52V27h-5.3zm.1-2.5h1.9l1.5 1.7h-1.7zm7.3 2.5h2.8c2 0 3.2 1 3.2 2.7 0 1.1-.5 1.9-1.4 2.3l2.8 4h-2.2l-2.4-3.6H56V27h-1.8v-9zm1.8 1.6v2.3h1c.8 0 1.2-.4 1.2-1.1s-.5-1.1-1.2-1.1h-1zm6.7-1.6h5.3v1.6h-3.4v2.1h2.9v1.6h-2.9v2.3h3.4V27h-5.3zM.1 31h3.5c2.9 0 4.8 2.1 4.8 4.5C8.4 38 6.5 40 3.6 40H.1zm1.8 1.7v5.7h1.7c1.7 0 2.9-1.2 2.9-2.8s-1.2-2.8-2.9-2.8H1.9zm8.3-1.7h5.3v1.6H12v2.1h2.9v1.6H12v2.3h3.4V40h-5.3v-9zM21 31h1.8v7.4h3.4V40H21zm9.6 0H33l3.4 9h-1.9l-.9-2.3H30l-.9 2.3h-1.9zm2.4 5.1-1.2-3.4-1.2 3.4zm8.7 1.5c.5.7 1.3 1.1 2 1.1s1.2-.4 1.2-1c0-1.6-4.1-1.2-4.1-4.3 0-1.4 1.2-2.6 2.9-2.6 1.4 0 2.4.6 3.2 1.5l-1.3 1.2c-.5-.7-1.1-1.1-1.8-1.1-.6 0-1 .4-1 .9 0 1.6 4.1 1.2 4.1 4.3 0 1.7-1.3 2.7-3 2.7-1.5 0-2.6-.6-3.3-1.5zm9.2-6.6h2.4l3.4 9h-1.9l-.9-2.3h-3.6l-.9 2.3h-1.9zm2.4 5.1-1.2-3.4-1.2 3.4zm4.9-5.1h2.3l4 6.5V31h1.8v9H64l-4-6.5V40h-1.8zm9.8 0h7.4v1.7h-2.8V40h-1.8v-7.4H68zm9 0h5.3v1.6h-3.4v2.1h2.9v1.6h-2.9v2.3h3.4V40H77zm1.8-.7 1.5-1.7h1.9l-1.7 1.7zM.1 44h5.3v1.6H1.9v2.1h2.9v1.6H1.9v2.3h3.4v1.6H.1zm6.6 0h7.4v1.7h-2.8v7.4H9.5v-7.4H6.7zm12.5 0h3.5c2.9 0 4.8 2.1 4.8 4.5S25.6 53 22.7 53h-3.5zm1.8 1.7v5.7h1.7c1.7 0 2.9-1.2 2.9-2.8s-1.2-2.8-2.9-2.8H21zm8.3-1.7h5.3v1.6h-3.4v2.1H34v1.6h-2.9v2.3h3.4v1.6h-5.3V44zm10.8 0h1.8v7.4h3.4v1.7H40V44zm9.6 0h2.4l3.4 9h-1.9l-.9-2.3h-3.6l-.9 2.3h-1.9zm2.4 5.2-1.2-3.4-1.2 3.4zm8.2-5.2h3c2 0 3.2 1 3.2 2.7s-1.2 2.7-3.2 2.7h-1.1V53h-1.8v-9zm1.8 1.6v2.3h1.2c.8 0 1.2-.4 1.2-1.1s-.5-1.1-1.2-1.1h-1.2zM68 44h2.8c2 0 3.2 1 3.2 2.7 0 1.1-.5 1.9-1.4 2.3l2.8 4h-2.2l-2.4-3.6h-.9V53H68zm1.9 1.6v2.3h1c.8 0 1.2-.4 1.2-1.1s-.5-1.1-1.2-1.1h-1zm6.7-1.6h5.3v1.6h-3.4v2.1h2.9v1.6h-2.9v2.3h3.4v1.6h-5.3zm1.7-.7 1.5-1.7h1.9L80 43.3zm6.5.7 2.7 7 2.7-7h1.9l-3.4 9h-2.4l-3.4-9zm8.7 0h5.3v1.6h-3.4v2.1h2.9v1.6h-2.9v2.3h3.4v1.6h-5.3zm7.5 0h2.3l4 6.5V44h1.8v9h-2.3l-4-6.5V53H101zm9.8 0h7.4v1.7h-2.8v7.4h-1.8v-7.4h-2.8zm9 0h1.8v9h-1.8zm13.2 4.6c0 2.6-1.9 4.8-4.8 4.8-2.8 0-4.8-2.2-4.8-4.8s1.9-4.8 4.8-4.8 4.8 2.2 4.8 4.8m-1.8 0c0-1.7-1.2-3.1-2.9-3.1s-2.9 1.3-2.9 3.1 1.2 3.1 2.9 3.1c1.6-.1 2.9-1.4 2.9-3.1m3.6-4.6h2.3l4 6.5V44h1.8v9h-2.3l-4-6.5V53h-1.8z"/></svg>